#!OML:ASF G:\JayActor3\Patient Classification 1\Patient 1\Session 5\male.ASF
:FULLY-SPECIFIED
:DEGREES
895
root -6.353 16.9125 -3.88513 -422.952 84.2744 -421.749
lowerback 1.88394 -0.389412 4.50828
upperback 1.89687 -0.447197 0.345706
thorax 0.86068 -0.164711 -2.16626
lowerneck -7.80249 0.312239 2.67126
upperneck 14.0442 -0.00173134 1.29628
head 5.52254 0.282666 -0.0285974
rclavicle -1.04113e-014 -1.31198e-014
rhumerus -31.9101 -4.22811 -86.9205
rradius 28.7609
rwrist 1.72076
rhand -18.1594 -8.2352
rfingers 7.12502
rthumb 8.11647 -38.0593
lclavicle -1.04113e-014 -1.31198e-014
lhumerus -31.0109 4.74763 82.5632
lradius 25.8538
lwrist 16.812
lhand -17.531 14.192
lfingers 7.12502
lthumb 8.7229 43.9917
rfemur -2.30183 1.03563 32.6263
rtibia 26.4486
rfoot -21.2866 -7.53357
rtoes 11.348
lfemur -24.5095 6.89977 -12.6268
ltibia 51.587
lfoot -11.9152 7.66241
ltoes -16.3695
896
root -6.41548 16.9124 -3.8867 -423.241 84.322 -421.997
lowerback 1.84436 -0.393831 4.47663
upperback 1.88238 -0.455563 0.349845
thorax 0.867546 -0.16952 -2.14438
lowerneck -7.79477 0.302877 2.66342
upperneck 14.0502 -0.0132229 1.29831
head 5.523 0.276991 -0.0274763
rclavicle -4.99446e-015 7.95139e-016
rhumerus -31.9892 -4.30559 -86.8432
rradius 28.6542
rwrist 1.73955
rhand -18.1985 -8.20783
rfingers 7.12502
rthumb 8.07876 -38.0334
lclavicle -4.99446e-015 7.95139e-016
lhumerus -31.0464 4.89527 82.5275
lradius 25.6591
lwrist 16.6575
lhand -17.5254 14.2037
lfingers 7.12502
lthumb 8.72839 44.0033
rfemur -2.61656 1.01676 32.583
rtibia 26.675
rfoot -21.2402 -7.50557
rtoes 11.6168
lfemur -24.1013 6.83773 -12.5384
ltibia 52.9042
lfoot -12.0321 7.46365
ltoes -16.6345
897
root -6.47768 16.9128 -3.88854 -423.407 84.366 -422.125
lowerback 1.80238 -0.393736 4.44246
upperback 1.86905 -0.458081 0.352057
thorax 0.877377 -0.171345 -2.12316
lowerneck -7.7827 0.295432 2.6583
upperneck 14.0369 -0.021985 1.29757
head 5.5167 0.272125 -0.0275309
rclavicle 1.44119e-015 -2.38542e-015
rhumerus -32.0656 -4.38499 -86.7683
rradius 28.5485
rwrist 1.77739
rhand -18.2289 -8.17977
rfingers 7.12502
rthumb 8.04942 -38.0065
lclavicle 1.44119e-015 -2.38542e-015
lhumerus -31.0789 5.04291 82.4889
lradius 25.4802
lwrist 16.5188
lhand -17.5224 14.2153
lfingers 7.12502
lthumb 8.73127 44.0147
rfemur -2.92489 1.01082 32.5366
rtibia 26.8848
rfoot -21.1809 -7.47879
rtoes 11.9109
lfemur -23.6402 6.79808 -12.4541
ltibia 54.1496
lfoot -12.1295 7.20393
ltoes -16.8592
898
root -6.53939 16.9141 -3.89058 -423.396 84.4056 -422.074
lowerback 1.75786 -0.388354 4.40422
upperback 1.86021 -0.453786 0.351314
thorax 0.893722 -0.169575 -2.1028
lowerneck -7.76882 0.291777 2.65717
upperneck 14.0066 -0.0260868 1.29643
head 5.50483 0.269303 -0.0280716
rclavicle -2.48481e-017 -3.18055e-015
rhumerus -32.1352 -4.4684 -86.6983
rradius 28.4459
rwrist 1.84031
rhand -18.2412 -8.18154
rfingers 7.12502
rthumb 8.03756 -38.0087
lclavicle -2.48481e-017 -3.18055e-015
lhumerus -31.1061 5.18434 82.4484
lradius 25.317
lwrist 16.4041
lhand -17.5249 14.2298
lfingers 7.12502
lthumb 8.72885 44.0293
rfemur -3.21672 1.02289 32.4866
rtibia 27.0684
rfoot -21.1077 -7.45506
rtoes 12.2176
lfemur -23.1184 6.78148 -12.3755
ltibia 55.3168
lfoot -12.2073 6.91832
ltoes -17.0184
899
root -6.60082 16.9165 -3.89266 -423.279 84.4443 -421.925
lowerback 1.70586 -0.380664 4.36064
upperback 1.85242 -0.446877 0.348949
thorax 0.915533 -0.166438 -2.0812
lowerneck -7.75911 0.290896 2.65493
upperneck 13.9691 -0.0266441 1.29602
head 5.49147 0.268011 -0.0279678
rclavicle 7.97623e-015 3.97569e-016
rhumerus -32.1959 -4.5583 -86.6295
rradius 28.3382
rwrist 1.91099
rhand -18.2502 -8.15483
rfingers 7.12502
rthumb 8.02886 -37.9823
lclavicle 7.97623e-015 3.97569e-016
lhumerus -31.1323 5.31811 82.4082
lradius 25.1743
lwrist 16.3109
lhand -17.5335 14.2522
lfingers 7.12502
lthumb 8.72056 44.0521
rfemur -3.49647 1.05563 32.4356
rtibia 27.2155
rfoot -21.0242 -7.44257
rtoes 12.5065
lfemur -22.5462 6.78747 -12.3034
ltibia 56.3966
lfoot -12.2482 6.62424
ltoes -17.0904
900
root -6.66222 16.9203 -3.89473 -423.154 84.4842 -421.772
lowerback 1.65534 -0.3746 4.3142
upperback 1.8425 -0.442005 0.345386
thorax 0.934184 -0.164465 -2.05918
lowerneck -7.74274 0.293958 2.65132
upperneck 13.9185 -0.0217627 1.29813
head 5.47289 0.269173 -0.026508
rclavicle -5.91384e-015 -1.19271e-015
rhumerus -32.2523 -4.6515 -86.5662
rradius 28.2318
rwrist 1.97801
rhand -18.2447 -8.14356
rfingers 7.12502
rthumb 8.03412 -37.9709
lclavicle -5.91384e-015 -1.19271e-015
lhumerus -31.1632 5.44063 82.3676
lradius 25.0512
lwrist 16.2387
lhand -17.5479 14.2726
lfingers 7.12502
lthumb 8.70661 44.0731
rfemur -3.75651 1.11047 32.3878
rtibia 27.3155
rfoot -20.926 -7.45304
rtoes 12.7728
lfemur -21.923 6.80787 -12.2365
ltibia 57.3794
lfoot -12.2293 6.35608
ltoes -17.1204
901
root -6.72248 16.9259 -3.89732 -422.834 84.522 -421.418
lowerback 1.60448 -0.364359 4.26714
upperback 1.83536 -0.431583 0.337498
thorax 0.956226 -0.15959 -2.0413
lowerneck -7.72035 0.298568 2.6485
upperneck 13.86 -0.0142838 1.29776
head 5.45086 0.271285 -0.0258031
rclavicle -3.15571e-015 -7.95139e-015
rhumerus -32.3037 -4.7503 -86.5052
rradius 28.1203
rwrist 2.05165
rhand -18.2305 -8.12441
rfingers 7.12502
rthumb 8.04792 -37.9512
lclavicle -3.15571e-015 -7.95139e-015
lhumerus -31.1989 5.54699 82.3298
lradius 24.9464
lwrist 16.1812
lhand -17.5726 14.2913
lfingers 7.12502
lthumb 8.6828 44.0928
rfemur -3.97732 1.18936 32.3322
rtibia 27.3616
rfoot -20.8112 -7.47251
rtoes 13.0063
lfemur -21.2251 6.84978 -12.1812
ltibia 58.2534
lfoot -12.1563 6.11678
ltoes -17.0123
902
root -6.78143 16.9334 -3.90052 -422.312 84.5544 -420.856
lowerback 1.55567 -0.349119 4.22349
upperback 1.83047 -0.414333 0.325336
thorax 0.979835 -0.151172 -2.02976
lowerneck -7.69084 0.304275 2.64435
upperneck 13.7983 -0.00486288 1.29786
head 5.42664 0.274249 -0.0246165
rclavicle 5.08143e-015 -1.86858e-014
rhumerus -32.3568 -4.85108 -86.4483
rradius 28.0124
rwrist 2.12533
rhand -18.2147 -8.09652
rfingers 7.12502
rthumb 8.06311 -37.9227
lclavicle 5.08143e-015 -1.86858e-014
lhumerus -31.2407 5.6386 82.293
lradius 24.8571
lwrist 16.1347
lhand -17.596 14.3015
lfingers 7.12502
lthumb 8.66022 44.1039
rfemur -4.15409 1.2933 32.2706
rtibia 27.3504
rfoot -20.6714 -7.51076
rtoes 13.2019
lfemur -20.4496 6.91576 -12.1341
ltibia 59.0107
lfoot -11.9982 5.90902
ltoes -16.8265
903
root -6.83934 16.9429 -3.90428 -421.726 84.589 -420.225
lowerback 1.50452 -0.333888 4.18125
upperback 1.82604 -0.397159 0.309836
thorax 1.00518 -0.142729 -2.02243
lowerneck -7.65456 0.309345 2.63856
upperneck 13.7361 0.00441781 1.29666
head 5.40111 0.276973 -0.0235918
rclavicle 6.07536e-015 -1.98785e-015
rhumerus -32.4085 -4.95073 -86.3968
rradius 27.9078
rwrist 2.19094
rhand -18.1906 -8.10472
rfingers 7.12502
rthumb 8.08637 -37.93
lclavicle 6.07536e-015 -1.98785e-015
lhumerus -31.2879 5.70975 82.2611
lradius 24.783
lwrist 16.0969
lhand -17.6136 14.2997
lfingers 7.12502
lthumb 8.64325 44.1027
rfemur -4.29537 1.4074 32.2013
rtibia 27.2856
rfoot -20.5068 -7.56971
rtoes 13.3493
lfemur -19.6101 6.98514 -12.0966
ltibia 59.6479
lfoot -11.7323 5.72263
ltoes -16.5602
904
root -6.8963 16.9538 -3.90853 -421.104 84.6285 -419.556
lowerback 1.45326 -0.319904 4.13713
upperback 1.82236 -0.381618 0.291587
thorax 1.03122 -0.135091 -2.01683
lowerneck -7.61973 0.314219 2.63138
upperneck 13.6853 0.0138368 1.29364
head 5.37937 0.279835 -0.0228763
rclavicle -5.08143e-015 4.77083e-015
rhumerus -32.4579 -5.04747 -86.3515
rradius 27.8057
rwrist 2.25148
rhand -18.1744 -8.13316
rfingers 7.12502
rthumb 8.10206 -37.9578
lclavicle -5.08143e-015 4.77083e-015
lhumerus -31.3344 5.77319 82.2312
lradius 24.7161
lwrist 16.0591
lhand -17.6219 14.2897
lfingers 7.12502
lthumb 8.63518 44.0931
rfemur -4.40655 1.52628 32.122
rtibia 27.177
rfoot -20.3198 -7.64413
rtoes 13.4587
lfemur -18.7099 7.04652 -12.0696
ltibia 60.1651
lfoot -11.3694 5.54307
ltoes -16.2875
905
root -6.95278 16.9655 -3.91326 -420.496 84.6738 -418.904
lowerback 1.40044 -0.307937 4.09101
upperback 1.81594 -0.36876 0.271879
thorax 1.05515 -0.128921 -2.01158
lowerneck -7.58666 0.317087 2.62333
upperneck 13.6499 0.0210523 1.28754
head 5.36274 0.281731 -0.0230971
rclavicle 7.70291e-015 1.23246e-014
rhumerus -32.5096 -5.14474 -86.3079
rradius 27.7107
rwrist 2.29947
rhand -18.1498 -8.17974
rfingers 7.12502
rthumb 8.12576 -38.0035
lclavicle 7.70291e-015 1.23246e-014
lhumerus -31.3803 5.82478 82.2056
lradius 24.6534
lwrist 16.0179
lhand -17.6256 14.2792
lfingers 7.12502
lthumb 8.63162 44.0827
rfemur -4.50387 1.64724 32.0347
rtibia 27.0401
rfoot -20.1186 -7.72987
rtoes 13.5483
lfemur -17.7658 7.09224 -12.0518
ltibia 60.5669
lfoot -10.9309 5.35458
ltoes -16.0697
906
root -7.00908 16.9775 -3.91837 -420.018 84.7248 -418.387
lowerback 1.34149 -0.301341 4.04571
upperback 1.80832 -0.363287 0.25319
thorax 1.08079 -0.126436 -2.00571
lowerneck -7.56015 0.321129 2.61588
upperneck 13.628 0.0297632 1.27962
head 5.35141 0.284568 -0.0238455
rclavicle -5.41688e-015 -2.78299e-015
rhumerus -32.5538 -5.24395 -86.2682
rradius 27.6099
rwrist 2.3575
rhand -18.1418 -8.23488
rfingers 7.12502
rthumb 8.13349 -38.0583
lclavicle -5.41688e-015 -2.78299e-015
lhumerus -31.4176 5.86842 82.1841
lradius 24.5908
lwrist 15.9751
lhand -17.6242 14.2621
lfingers 7.12502
lthumb 8.63303 44.0656
rfemur -4.60147 1.76259 31.9455
rtibia 26.8917
rfoot -19.9155 -7.81838
rtoes 13.6221
lfemur -16.7906 7.10807 -12.0378
ltibia 60.8586
lfoot -10.4585 5.12943
ltoes -15.9404
907
root -7.06537 16.9891 -3.92386 -419.671 84.7817 -418.013
lowerback 1.27303 -0.298958 3.99983
upperback 1.79765 -0.363807 0.236856
thorax 1.10826 -0.127005 -1.9971
lowerneck -7.54364 0.324501 2.60869
upperneck 13.6264 0.0375004 1.26904
head 5.3481 0.287219 -0.0254718
rclavicle -4.28629e-015 1.98785e-015
rhumerus -32.5961 -5.34966 -86.2247
rradius 27.5079
rwrist 2.41484
rhand -18.1438 -8.25131
rfingers 7.12502
rthumb 8.13157 -38.0749
lclavicle -4.28629e-015 1.98785e-015
lhumerus -31.446 5.90681 82.1704
lradius 24.5281
lwrist 15.9229
lhand -17.6275 14.255
lfingers 7.12502
lthumb 8.62986 44.0586
rfemur -4.7151 1.86274 31.8545
rtibia 26.746
rfoot -19.7083 -7.9148
rtoes 13.6111
lfemur -15.7963 7.0924 -12.028
ltibia 61.0441
lfoot -9.99248 4.8328
ltoes -15.9434
908
root -7.12241 17.0001 -3.92959 -419.588 84.8535 -417.918
lowerback 1.19623 -0.305579 3.94953
upperback 1.78297 -0.376643 0.222789
thorax 1.13554 -0.133892 -1.98369
lowerneck -7.53848 0.327609 2.6024
upperneck 13.6379 0.0446395 1.25572
head 5.35082 0.289718 -0.028095
rclavicle -4.33599e-015 1.98785e-015
rhumerus -32.6294 -5.46152 -86.1798
rradius 27.4049
rwrist 2.46872
rhand -18.149 -8.26279
rfingers 7.12502
rthumb 8.12648 -38.0865
lclavicle -4.33599e-015 1.98785e-015
lhumerus -31.4608 5.94911 82.1593
lradius 24.4617
lwrist 15.8631
lhand -17.6323 14.2484
lfingers 7.12502
lthumb 8.62514 44.0522
rfemur -4.85886 1.94328 31.761
rtibia 26.6151
rfoot -19.5044 -8.01719
rtoes 13.5484
lfemur -14.8016 7.03424 -12.0265
ltibia 61.1256
lfoot -9.5476 4.44551
ltoes -16.1122
909
root -7.17955 17.0102 -3.93595 -419.612 84.9243 -417.938
lowerback 1.10769 -0.31352 3.90633
upperback 1.77091 -0.391721 0.210645
thorax 1.17196 -0.141609 -1.97237
lowerneck -7.54399 0.32865 2.5967
upperneck 13.6574 0.0486543 1.24067
head 5.3578 0.29076 -0.0315331
rclavicle -1.88845e-015 -1.98785e-015
rhumerus -32.6494 -5.58859 -86.13
rradius 27.2926
rwrist 2.5376
rhand -18.163 -8.23933
rfingers 7.12502
rthumb 8.11303 -38.0636
lclavicle -1.88845e-015 -1.98785e-015
lhumerus -31.4574 5.98774 82.1557
lradius 24.3945
lwrist 15.8002
lhand -17.6459 14.254
lfingers 7.12502
lthumb 8.61209 44.0583
rfemur -5.0258 2.00805 31.6688
rtibia 26.5089
rfoot -19.3054 -8.11356
rtoes 13.4326
lfemur -13.7917 6.95129 -12.0253
ltibia 61.1023
lfoot -9.14665 3.92965
ltoes -16.3038
